<?xml version="1.0" encoding="iso-8859-1"?>
<!-- Generator: Adobe Illustrator 18.1.1, SVG Export Plug-In . SVG Version: 6.00 Build 0)  -->
<svg version="1.1" id="Capa_1" xmlns="http://www.w3.org/2000/svg" xmlns:xlink="http://www.w3.org/1999/xlink" x="0px" y="0px"
	 viewBox="0 0 107.366 107.366" style="enable-background:new 0 0 107.366 107.366;" xml:space="preserve">
<g>
	<path style="fill:#010002;" d="M107.366,53.683C107.366,24.082,83.283,0,53.683,0c-4.982,0-9.785,0.734-14.366,2.011L39.21,1.94
		c-0.025,0.036-0.043,0.075-0.068,0.115C16.595,8.417,0,29.125,0,53.683c0,29.601,24.082,53.683,53.683,53.683
		c4.985,0,9.785-0.734,14.366-2.011l0.107,0.075c0.025-0.036,0.047-0.075,0.068-0.115C90.77,98.948,107.366,78.237,107.366,53.683z
		 M5.343,56.292H24.69c0.193,5.766,0.837,11.438,2.004,16.942H9.366C7.047,68.002,5.662,62.29,5.343,56.292z M102.022,51.077H82.679
		c-0.197-5.769-0.837-11.442-2.008-16.946H98C100.319,39.364,101.704,45.076,102.022,51.077z M77.468,51.077h-21.18V34.131h19.061
		C76.58,39.625,77.264,45.298,77.468,51.077z M56.292,28.924V5.343c2.53,0.136,5.014,0.415,7.43,0.923
		c4.502,6.986,7.97,14.595,10.289,22.658H56.292z M51.077,28.924h-18.12c2.137-7.92,5.354-15.436,9.57-22.368
		c2.766-0.655,5.622-1.056,8.55-1.213V28.924z M51.077,34.132v16.946H29.84c0.111-5.766,0.712-11.442,1.85-16.946H51.077z
		 M24.633,51.077H5.34c0.319-6.002,1.704-11.717,4.023-16.946h17.046C25.335,39.654,24.741,45.319,24.633,51.077z M29.898,56.292
		h21.18v16.942H32.013C30.785,67.74,30.102,62.068,29.898,56.292z M51.077,78.441v23.581c-2.53-0.136-5.018-0.415-7.43-0.923
		c-4.502-6.986-7.97-14.595-10.293-22.658C33.355,78.441,51.077,78.441,51.077,78.441z M56.292,78.441h18.116
		c-2.14,7.92-5.354,15.432-9.57,22.368c-2.766,0.659-5.622,1.056-8.55,1.213V78.441H56.292z M56.292,73.234V56.292h21.237
		c-0.111,5.762-0.712,11.438-1.854,16.942C75.675,73.234,56.292,73.234,56.292,73.234z M82.732,56.292h19.294
		c-0.319,6.002-1.704,11.714-4.023,16.942H80.957C82.031,67.712,82.625,62.047,82.732,56.292z M95.28,28.924H79.393
		c-1.943-7.147-4.681-13.993-8.235-20.403C81.294,12.454,89.765,19.694,95.28,28.924z M35.219,8.883
		c-3.31,6.32-5.848,13.041-7.627,20.038H12.086C17.425,19.991,25.514,12.898,35.219,8.883z M12.086,78.441h15.89
		c1.94,7.147,4.678,13.993,8.231,20.403C26.072,94.911,17.601,87.671,12.086,78.441z M72.146,98.483
		c3.31-6.32,5.848-13.041,7.627-20.038H95.28C89.94,87.374,81.852,94.467,72.146,98.483z"/>
</g>
<g>
</g>
<g>
</g>
<g>
</g>
<g>
</g>
<g>
</g>
<g>
</g>
<g>
</g>
<g>
</g>
<g>
</g>
<g>
</g>
<g>
</g>
<g>
</g>
<g>
</g>
<g>
</g>
<g>
</g>
</svg>
